<?xml version="1.0" standalone="no"?>
<!DOCTYPE svg PUBLIC "-//W3C//DTD SVG 20010904//EN"
 "http://www.w3.org/TR/2001/REC-SVG-20010904/DTD/svg10.dtd">
<svg version="1.0" xmlns="http://www.w3.org/2000/svg"
 width="225.000000pt" height="225.000000pt" viewBox="0 0 225.000000 225.000000"
 preserveAspectRatio="xMidYMid meet">
<metadata>
Created by potrace 1.11, written by Peter Selinger 2001-2013
</metadata>
<g transform="translate(0.000000,225.000000) scale(0.100000,-0.100000)"
fill="#000000" stroke="none">
<path d="M0 1125 l0 -1125 1125 0 1125 0 0 1125 0 1125 -1125 0 -1125 0 0
-1125z m611 252 c-10 -9 -11 -8 -5 6 3 10 9 15 12 12 3 -3 0 -11 -7 -18z m59
-52 c7 -9 8 -15 2 -15 -5 0 -12 7 -16 15 -3 8 -4 15 -2 15 2 0 9 -7 16 -15z
m-19 -28 c-1 -12 -15 -9 -19 4 -3 6 1 10 8 8 6 -3 11 -8 11 -12z m56 -13 c-3
-3 -12 -4 -19 -1 -8 3 -5 6 6 6 11 1 17 -2 13 -5z m-36 -28 c5 3 9 -2 9 -10 0
-8 -4 -17 -9 -20 -9 -6 -22 17 -20 37 0 8 2 8 6 -1 2 -6 9 -10 14 -6z m99 -41
c79 -96 229 -210 332 -253 180 -75 340 -42 478 97 32 33 70 85 90 126 23 46
36 64 38 52 2 -10 -2 -26 -10 -35 -30 -36 -70 -126 -156 -347 -113 -290 -134
-341 -184 -440 -82 -162 -96 -171 -204 -122 -41 19 -71 37 -67 41 4 4 0 4 -9
1 -41 -16 -109 107 -234 425 -47 118 -93 235 -104 260 -25 62 -70 179 -70 185
0 3 5 5 10 5 6 0 10 -9 10 -20 0 -11 5 -20 10 -20 6 0 10 -9 10 -21 0 -13 4
-18 12 -13 7 4 8 3 4 -5 -4 -6 2 -25 14 -41 12 -16 18 -35 14 -42 -5 -7 -2 -9
7 -6 9 4 15 -2 16 -18 6 -54 8 -62 15 -58 4 3 8 0 8 -6 0 -7 9 -23 20 -37 11
-14 17 -30 13 -36 -4 -6 -1 -7 6 -3 8 5 14 0 18 -13 3 -11 9 -18 14 -15 5 3 9
-1 10 -8 1 -28 8 -50 27 -91 11 -23 28 -82 38 -132 17 -92 26 -108 100 -187
23 -25 40 -35 51 -31 11 4 14 2 11 -8 -2 -7 0 -18 5 -24 12 -13 77 -7 96 9 11
9 13 6 8 -14 -4 -14 -4 -19 -1 -12 3 6 10 10 14 7 5 -3 17 9 26 27 13 25 15
47 10 97 -6 65 -39 202 -70 291 -9 25 -16 62 -16 82 0 35 -20 68 -42 68 -5 0
-33 11 -60 25 -27 14 -55 22 -60 18 -6 -3 -8 -1 -4 5 6 11 -30 28 -49 23 -5
-1 -7 0 -3 4 11 12 -58 66 -76 59 -9 -3 -16 -1 -16 6 0 6 5 8 10 5 6 -3 10 -1
10 4 0 6 -6 11 -12 11 -15 0 -126 116 -152 159 -15 24 16 0 44 -34z"/>
<path d="M1540 989 c0 -5 5 -7 10 -4 6 3 10 8 10 11 0 2 -4 4 -10 4 -5 0 -10
-5 -10 -11z"/>
<path d="M1467 919 c-9 -5 -22 -7 -29 -3 -7 5 -8 3 -3 -6 6 -9 1 -10 -16 -5
-18 5 -20 4 -9 -4 8 -6 26 -8 40 -5 l25 4 -25 -10 c-14 -6 -33 -8 -45 -3 -11
4 -63 8 -115 8 l-95 0 3 -30 c2 -16 10 -40 18 -52 8 -12 14 -29 14 -38 0 -8 4
-23 10 -33 13 -23 40 -154 40 -192 0 -21 4 -30 13 -27 6 2 12 18 12 35 0 32
29 65 51 58 12 -4 34 34 34 58 0 7 11 18 24 26 26 13 41 62 30 96 -5 18 -5 18
6 1 7 -10 9 -30 6 -45 -5 -23 -5 -24 5 -9 6 10 8 28 6 39 -3 12 1 27 9 36 10
9 14 27 12 43 -3 16 0 31 6 33 6 2 5 5 -3 5 -11 1 -10 5 5 16 14 11 15 14 4
14 -8 0 -23 -4 -33 -10z"/>
<path d="M856 827 c3 -10 9 -15 12 -12 3 3 0 11 -7 18 -10 9 -11 8 -5 -6z"/>
</g>
</svg>
